<mxfile host="app.diagrams.net" modified="2024-05-11T08:40:38.005Z" agent="Mozilla/5.0 (Macintosh; Intel Mac OS X 10_15_7) AppleWebKit/537.36 (KHTML, like Gecko) Chrome/124.0.0.0 Safari/537.36" etag="RFz90PeWpOLQ23pNormP" version="24.3.1" type="device">
  <diagram name="Page-1" id="zjUnPRCkh5jli0Wmc1xv">
    <mxGraphModel dx="2363" dy="1583" grid="1" gridSize="10" guides="1" tooltips="1" connect="1" arrows="1" fold="1" page="1" pageScale="1" pageWidth="1169" pageHeight="827" background="#ffffff" math="0" shadow="0">
      <root>
        <mxCell id="0" />
        <mxCell id="1" parent="0" />
        <mxCell id="kjFv69AqMKil5OdX_UNA-136" value="Lambda" style="sketch=0;points=[[0,0,0],[0.25,0,0],[0.5,0,0],[0.75,0,0],[1,0,0],[0,1,0],[0.25,1,0],[0.5,1,0],[0.75,1,0],[1,1,0],[0,0.25,0],[0,0.5,0],[0,0.75,0],[1,0.25,0],[1,0.5,0],[1,0.75,0]];outlineConnect=0;dashed=0;verticalLabelPosition=bottom;verticalAlign=top;align=center;html=1;fontSize=12;fontStyle=0;aspect=fixed;shape=mxgraph.aws4.resourceIcon;resIcon=mxgraph.aws4.lambda;" parent="1" vertex="1">
          <mxGeometry x="-1120" y="-160" width="78" height="78" as="geometry" />
        </mxCell>
        <mxCell id="NeZDGTnPQlUCINiudTui-1" value="API Gateway" style="sketch=0;points=[[0,0,0],[0.25,0,0],[0.5,0,0],[0.75,0,0],[1,0,0],[0,1,0],[0.25,1,0],[0.5,1,0],[0.75,1,0],[1,1,0],[0,0.25,0],[0,0.5,0],[0,0.75,0],[1,0.25,0],[1,0.5,0],[1,0.75,0]];outlineConnect=0;dashed=0;verticalLabelPosition=bottom;verticalAlign=top;align=center;html=1;fontSize=12;fontStyle=0;aspect=fixed;shape=mxgraph.aws4.resourceIcon;resIcon=mxgraph.aws4.api_gateway;" vertex="1" parent="1">
          <mxGeometry x="-826" y="-160" width="78" height="78" as="geometry" />
        </mxCell>
        <mxCell id="NeZDGTnPQlUCINiudTui-6" value="DynamoDB" style="sketch=0;points=[[0,0,0],[0.25,0,0],[0.5,0,0],[0.75,0,0],[1,0,0],[0,1,0],[0.25,1,0],[0.5,1,0],[0.75,1,0],[1,1,0],[0,0.25,0],[0,0.5,0],[0,0.75,0],[1,0.25,0],[1,0.5,0],[1,0.75,0]];outlineConnect=0;dashed=0;verticalLabelPosition=bottom;verticalAlign=top;align=center;html=1;fontSize=12;fontStyle=0;aspect=fixed;shape=mxgraph.aws4.resourceIcon;resIcon=mxgraph.aws4.dynamodb;" vertex="1" parent="1">
          <mxGeometry x="-1120" y="-510" width="78" height="78" as="geometry" />
        </mxCell>
        <mxCell id="NeZDGTnPQlUCINiudTui-15" style="edgeStyle=orthogonalEdgeStyle;rounded=0;orthogonalLoop=1;jettySize=auto;html=1;" edge="1" parent="1" source="NeZDGTnPQlUCINiudTui-53" target="NeZDGTnPQlUCINiudTui-14">
          <mxGeometry relative="1" as="geometry">
            <mxPoint x="-506.3699999999999" y="-450" as="sourcePoint" />
          </mxGeometry>
        </mxCell>
        <mxCell id="NeZDGTnPQlUCINiudTui-19" style="edgeStyle=orthogonalEdgeStyle;rounded=0;orthogonalLoop=1;jettySize=auto;html=1;" edge="1" parent="1" source="NeZDGTnPQlUCINiudTui-53">
          <mxGeometry relative="1" as="geometry">
            <mxPoint x="-427.3699999999999" y="-450" as="sourcePoint" />
            <mxPoint x="-32" y="-290" as="targetPoint" />
          </mxGeometry>
        </mxCell>
        <mxCell id="NeZDGTnPQlUCINiudTui-21" value="1.1 www.crisp.nz" style="edgeLabel;html=1;align=center;verticalAlign=middle;resizable=0;points=[];textDirection=vertical-lr;" vertex="1" connectable="0" parent="NeZDGTnPQlUCINiudTui-19">
          <mxGeometry x="-0.3937" relative="1" as="geometry">
            <mxPoint x="280" y="-65" as="offset" />
          </mxGeometry>
        </mxCell>
        <mxCell id="NeZDGTnPQlUCINiudTui-17" style="edgeStyle=orthogonalEdgeStyle;rounded=0;orthogonalLoop=1;jettySize=auto;html=1;dashed=1;" edge="1" parent="1" source="NeZDGTnPQlUCINiudTui-13" target="NeZDGTnPQlUCINiudTui-53">
          <mxGeometry relative="1" as="geometry">
            <mxPoint x="-546.3699999999999" y="-490" as="targetPoint" />
          </mxGeometry>
        </mxCell>
        <mxCell id="NeZDGTnPQlUCINiudTui-23" value="&lt;span style=&quot;background-color: rgb(251, 251, 251);&quot;&gt;1.3 [return crisp.nz website ]&lt;/span&gt;" style="edgeLabel;html=1;align=center;verticalAlign=middle;resizable=0;points=[];" vertex="1" connectable="0" parent="NeZDGTnPQlUCINiudTui-17">
          <mxGeometry x="-0.2234" y="-2" relative="1" as="geometry">
            <mxPoint x="37" y="-9" as="offset" />
          </mxGeometry>
        </mxCell>
        <mxCell id="NeZDGTnPQlUCINiudTui-13" value="S3" style="sketch=0;points=[[0,0,0],[0.25,0,0],[0.5,0,0],[0.75,0,0],[1,0,0],[0,1,0],[0.25,1,0],[0.5,1,0],[0.75,1,0],[1,1,0],[0,0.25,0],[0,0.5,0],[0,0.75,0],[1,0.25,0],[1,0.5,0],[1,0.75,0]];outlineConnect=0;dashed=0;verticalLabelPosition=bottom;verticalAlign=top;align=center;html=1;fontSize=12;fontStyle=0;aspect=fixed;shape=mxgraph.aws4.resourceIcon;resIcon=mxgraph.aws4.s3_on_outposts_storage;" vertex="1" parent="1">
          <mxGeometry x="-350" y="-688" width="78" height="78" as="geometry" />
        </mxCell>
        <mxCell id="NeZDGTnPQlUCINiudTui-14" value="Route 53" style="sketch=0;points=[[0,0,0],[0.25,0,0],[0.5,0,0],[0.75,0,0],[1,0,0],[0,1,0],[0.25,1,0],[0.5,1,0],[0.75,1,0],[1,1,0],[0,0.25,0],[0,0.5,0],[0,0.75,0],[1,0.25,0],[1,0.5,0],[1,0.75,0]];outlineConnect=0;dashed=0;verticalLabelPosition=bottom;verticalAlign=top;align=center;html=1;fontSize=12;fontStyle=0;aspect=fixed;shape=mxgraph.aws4.resourceIcon;resIcon=mxgraph.aws4.route_53;" vertex="1" parent="1">
          <mxGeometry x="-70" y="-688" width="78" height="78" as="geometry" />
        </mxCell>
        <mxCell id="NeZDGTnPQlUCINiudTui-16" style="edgeStyle=orthogonalEdgeStyle;rounded=0;orthogonalLoop=1;jettySize=auto;html=1;entryX=1;entryY=0.5;entryDx=0;entryDy=0;entryPerimeter=0;dashed=1;" edge="1" parent="1" source="NeZDGTnPQlUCINiudTui-14" target="NeZDGTnPQlUCINiudTui-13">
          <mxGeometry relative="1" as="geometry" />
        </mxCell>
        <mxCell id="NeZDGTnPQlUCINiudTui-22" value="&lt;span style=&quot;background-color: rgb(251, 251, 251);&quot;&gt;1.2 [ resolve url to resource ]&lt;/span&gt;" style="edgeLabel;html=1;align=center;verticalAlign=middle;resizable=0;points=[];" vertex="1" connectable="0" parent="NeZDGTnPQlUCINiudTui-16">
          <mxGeometry x="0.3168" y="1" relative="1" as="geometry">
            <mxPoint x="33" y="-13" as="offset" />
          </mxGeometry>
        </mxCell>
        <mxCell id="NeZDGTnPQlUCINiudTui-20" style="edgeStyle=orthogonalEdgeStyle;rounded=0;orthogonalLoop=1;jettySize=auto;html=1;dashed=1;" edge="1" parent="1" source="NeZDGTnPQlUCINiudTui-18" target="NeZDGTnPQlUCINiudTui-53">
          <mxGeometry relative="1" as="geometry">
            <mxPoint x="-546.3699999999999" y="-410" as="targetPoint" />
          </mxGeometry>
        </mxCell>
        <mxCell id="NeZDGTnPQlUCINiudTui-18" value="Cognito" style="sketch=0;points=[[0,0,0],[0.25,0,0],[0.5,0,0],[0.75,0,0],[1,0,0],[0,1,0],[0.25,1,0],[0.5,1,0],[0.75,1,0],[1,1,0],[0,0.25,0],[0,0.5,0],[0,0.75,0],[1,0.25,0],[1,0.5,0],[1,0.75,0]];outlineConnect=0;dashed=0;verticalLabelPosition=bottom;verticalAlign=top;align=center;html=1;fontSize=12;fontStyle=0;aspect=fixed;shape=mxgraph.aws4.resourceIcon;resIcon=mxgraph.aws4.cognito;" vertex="1" parent="1">
          <mxGeometry x="-70" y="-290" width="78" height="78" as="geometry" />
        </mxCell>
        <mxCell id="NeZDGTnPQlUCINiudTui-24" value="2.1 [username, pssword]" style="edgeLabel;html=1;align=center;verticalAlign=middle;resizable=0;points=[];textDirection=vertical-lr;" vertex="1" connectable="0" parent="1">
          <mxGeometry x="-150.00013400271337" y="-429.9978092985104" as="geometry">
            <mxPoint x="126" y="58" as="offset" />
          </mxGeometry>
        </mxCell>
        <mxCell id="NeZDGTnPQlUCINiudTui-25" value="&lt;span style=&quot;color: rgb(0, 0, 0); font-family: Helvetica; font-size: 11px; font-style: normal; font-variant-ligatures: normal; font-variant-caps: normal; font-weight: 400; letter-spacing: normal; orphans: 2; text-align: center; text-indent: 0px; text-transform: none; widows: 2; word-spacing: 0px; -webkit-text-stroke-width: 0px; white-space: nowrap; background-color: rgb(255, 255, 255); text-decoration-thickness: initial; text-decoration-style: initial; text-decoration-color: initial; display: inline !important; float: none;&quot;&gt;2.2 (security token)&lt;/span&gt;" style="text;whiteSpace=wrap;html=1;" vertex="1" parent="1">
          <mxGeometry x="-335" y="-273" width="150" height="40" as="geometry" />
        </mxCell>
        <mxCell id="NeZDGTnPQlUCINiudTui-27" value="&lt;span style=&quot;color: rgb(0, 0, 0); font-family: Helvetica; font-size: 11px; font-style: normal; font-variant-ligatures: normal; font-variant-caps: normal; font-weight: 400; letter-spacing: normal; orphans: 2; text-align: center; text-indent: 0px; text-transform: none; widows: 2; word-spacing: 0px; -webkit-text-stroke-width: 0px; white-space: nowrap; background-color: rgb(251, 251, 251); text-decoration-thickness: initial; text-decoration-style: initial; text-decoration-color: initial; display: inline !important; float: none;&quot;&gt;3.1 [ security token, uri, parametrs ]&lt;/span&gt;" style="text;whiteSpace=wrap;html=1;textDirection=vertical-lr;" vertex="1" parent="1">
          <mxGeometry x="-762" y="-382" width="200" height="40" as="geometry" />
        </mxCell>
        <mxCell id="NeZDGTnPQlUCINiudTui-28" style="edgeStyle=orthogonalEdgeStyle;rounded=0;orthogonalLoop=1;jettySize=auto;html=1;exitX=0;exitY=0.75;exitDx=0;exitDy=0;exitPerimeter=0;entryX=1;entryY=0.75;entryDx=0;entryDy=0;entryPerimeter=0;" edge="1" parent="1" source="NeZDGTnPQlUCINiudTui-1" target="kjFv69AqMKil5OdX_UNA-136">
          <mxGeometry relative="1" as="geometry" />
        </mxCell>
        <mxCell id="NeZDGTnPQlUCINiudTui-44" value="3.2 [ security token, parameters ]" style="edgeLabel;html=1;align=center;verticalAlign=middle;resizable=0;points=[];" vertex="1" connectable="0" parent="NeZDGTnPQlUCINiudTui-28">
          <mxGeometry x="0.0926" y="-1" relative="1" as="geometry">
            <mxPoint x="3" y="-8" as="offset" />
          </mxGeometry>
        </mxCell>
        <mxCell id="NeZDGTnPQlUCINiudTui-29" style="edgeStyle=orthogonalEdgeStyle;rounded=0;orthogonalLoop=1;jettySize=auto;html=1;exitX=0.25;exitY=0;exitDx=0;exitDy=0;exitPerimeter=0;entryX=0.25;entryY=1;entryDx=0;entryDy=0;entryPerimeter=0;" edge="1" parent="1" source="kjFv69AqMKil5OdX_UNA-136" target="NeZDGTnPQlUCINiudTui-6">
          <mxGeometry relative="1" as="geometry" />
        </mxCell>
        <mxCell id="NeZDGTnPQlUCINiudTui-45" value="3.3 [ security token, parameters ]" style="edgeLabel;html=1;align=center;verticalAlign=middle;resizable=0;points=[];textDirection=vertical-lr;" vertex="1" connectable="0" parent="NeZDGTnPQlUCINiudTui-29">
          <mxGeometry x="-0.0755" y="-1" relative="1" as="geometry">
            <mxPoint x="8" y="5" as="offset" />
          </mxGeometry>
        </mxCell>
        <mxCell id="NeZDGTnPQlUCINiudTui-30" style="edgeStyle=orthogonalEdgeStyle;rounded=0;orthogonalLoop=1;jettySize=auto;html=1;exitX=0.75;exitY=1;exitDx=0;exitDy=0;exitPerimeter=0;entryX=0.75;entryY=0;entryDx=0;entryDy=0;entryPerimeter=0;dashed=1;" edge="1" parent="1" source="NeZDGTnPQlUCINiudTui-6" target="kjFv69AqMKil5OdX_UNA-136">
          <mxGeometry relative="1" as="geometry" />
        </mxCell>
        <mxCell id="NeZDGTnPQlUCINiudTui-46" value="3.4 ( result? )" style="edgeLabel;html=1;align=center;verticalAlign=middle;resizable=0;points=[];textDirection=vertical-lr;" vertex="1" connectable="0" parent="NeZDGTnPQlUCINiudTui-30">
          <mxGeometry x="-0.0809" y="1" relative="1" as="geometry">
            <mxPoint x="9" y="17" as="offset" />
          </mxGeometry>
        </mxCell>
        <mxCell id="NeZDGTnPQlUCINiudTui-31" style="edgeStyle=orthogonalEdgeStyle;rounded=0;orthogonalLoop=1;jettySize=auto;html=1;exitX=1;exitY=0.25;exitDx=0;exitDy=0;exitPerimeter=0;entryX=0;entryY=0.25;entryDx=0;entryDy=0;entryPerimeter=0;dashed=1;" edge="1" parent="1" source="kjFv69AqMKil5OdX_UNA-136" target="NeZDGTnPQlUCINiudTui-1">
          <mxGeometry relative="1" as="geometry" />
        </mxCell>
        <mxCell id="NeZDGTnPQlUCINiudTui-47" value="( 3.5, result? )" style="edgeLabel;html=1;align=center;verticalAlign=middle;resizable=0;points=[];" vertex="1" connectable="0" parent="NeZDGTnPQlUCINiudTui-31">
          <mxGeometry x="-0.213" y="4" relative="1" as="geometry">
            <mxPoint x="16" y="-6" as="offset" />
          </mxGeometry>
        </mxCell>
        <mxCell id="NeZDGTnPQlUCINiudTui-41" style="edgeStyle=orthogonalEdgeStyle;rounded=0;orthogonalLoop=1;jettySize=auto;html=1;exitX=0.25;exitY=1;exitDx=0;exitDy=0;exitPerimeter=0;dashed=1;" edge="1" parent="1" source="NeZDGTnPQlUCINiudTui-33" target="NeZDGTnPQlUCINiudTui-53">
          <mxGeometry relative="1" as="geometry">
            <mxPoint x="-640" y="-460" as="targetPoint" />
            <Array as="points">
              <mxPoint x="-810" y="-722" />
              <mxPoint x="-810" y="-460" />
            </Array>
          </mxGeometry>
        </mxCell>
        <mxCell id="NeZDGTnPQlUCINiudTui-42" value="4.2 ( File )" style="edgeLabel;html=1;align=center;verticalAlign=middle;resizable=0;points=[];textDirection=vertical-lr;" vertex="1" connectable="0" parent="NeZDGTnPQlUCINiudTui-41">
          <mxGeometry x="-0.4482" y="-2" relative="1" as="geometry">
            <mxPoint x="11" y="11" as="offset" />
          </mxGeometry>
        </mxCell>
        <mxCell id="NeZDGTnPQlUCINiudTui-33" value="S3" style="sketch=0;points=[[0,0,0],[0.25,0,0],[0.5,0,0],[0.75,0,0],[1,0,0],[0,1,0],[0.25,1,0],[0.5,1,0],[0.75,1,0],[1,1,0],[0,0.25,0],[0,0.5,0],[0,0.75,0],[1,0.25,0],[1,0.5,0],[1,0.75,0]];outlineConnect=0;dashed=0;verticalLabelPosition=bottom;verticalAlign=top;align=center;html=1;fontSize=12;fontStyle=0;aspect=fixed;shape=mxgraph.aws4.resourceIcon;resIcon=mxgraph.aws4.s3_on_outposts_storage;" vertex="1" parent="1">
          <mxGeometry x="-824" y="-800" width="78" height="78" as="geometry" />
        </mxCell>
        <mxCell id="NeZDGTnPQlUCINiudTui-34" style="edgeStyle=orthogonalEdgeStyle;rounded=0;orthogonalLoop=1;jettySize=auto;html=1;" edge="1" parent="1" source="NeZDGTnPQlUCINiudTui-53">
          <mxGeometry relative="1" as="geometry">
            <mxPoint x="-600" y="-420" as="sourcePoint" />
            <mxPoint x="-764" y="-160" as="targetPoint" />
            <Array as="points">
              <mxPoint x="-764" y="-430" />
            </Array>
          </mxGeometry>
        </mxCell>
        <mxCell id="NeZDGTnPQlUCINiudTui-36" style="edgeStyle=orthogonalEdgeStyle;rounded=0;orthogonalLoop=1;jettySize=auto;html=1;entryX=0.5;entryY=1;entryDx=0;entryDy=0;entryPerimeter=0;" edge="1" parent="1" source="NeZDGTnPQlUCINiudTui-53">
          <mxGeometry relative="1" as="geometry">
            <mxPoint x="-640" y="-480" as="sourcePoint" />
            <mxPoint x="-766" y="-723" as="targetPoint" />
            <Array as="points">
              <mxPoint x="-766" y="-470" />
            </Array>
          </mxGeometry>
        </mxCell>
        <mxCell id="NeZDGTnPQlUCINiudTui-37" value="&lt;div style=&quot;text-align: center;&quot;&gt;&lt;span style=&quot;font-size: 11px; text-wrap: nowrap;&quot;&gt;4.1 [ security token, file ]&lt;/span&gt;&lt;/div&gt;" style="text;whiteSpace=wrap;html=1;textDirection=vertical-lr;" vertex="1" parent="1">
          <mxGeometry x="-765" y="-652" width="200" height="40" as="geometry" />
        </mxCell>
        <mxCell id="NeZDGTnPQlUCINiudTui-40" style="edgeStyle=orthogonalEdgeStyle;rounded=0;orthogonalLoop=1;jettySize=auto;html=1;dashed=1;" edge="1" parent="1" source="NeZDGTnPQlUCINiudTui-1" target="NeZDGTnPQlUCINiudTui-53">
          <mxGeometry relative="1" as="geometry">
            <mxPoint x="-640" y="-436" as="targetPoint" />
            <Array as="points">
              <mxPoint x="-810" y="-440" />
            </Array>
          </mxGeometry>
        </mxCell>
        <mxCell id="NeZDGTnPQlUCINiudTui-43" value="3.6 ( response code, result? )" style="edgeLabel;html=1;align=center;verticalAlign=middle;resizable=0;points=[];textDirection=vertical-lr;" vertex="1" connectable="0" parent="NeZDGTnPQlUCINiudTui-40">
          <mxGeometry x="-0.4557" y="-1" relative="1" as="geometry">
            <mxPoint x="8" y="5" as="offset" />
          </mxGeometry>
        </mxCell>
        <mxCell id="NeZDGTnPQlUCINiudTui-53" value="Browser" style="sketch=0;pointerEvents=1;shadow=0;dashed=0;html=1;strokeColor=none;fillColor=#434445;aspect=fixed;labelPosition=center;verticalLabelPosition=bottom;verticalAlign=top;align=center;outlineConnect=0;shape=mxgraph.vvd.web_browser;" vertex="1" parent="1">
          <mxGeometry x="-590" y="-490" width="98.6" height="70" as="geometry" />
        </mxCell>
      </root>
    </mxGraphModel>
  </diagram>
</mxfile>
